<?xml version="1.0" encoding="UTF-8"?>
<svg data-slug-id="azure-web-apps" viewBox="0 0 49 48" xmlns="http://www.w3.org/2000/svg">
<path d="m33.185 35.174c-2.0171 1.5643-4.3226 2.716-6.7847 3.3893-2.4622 0.6733-5.0329 0.8551-7.5654 0.5349-5.1145-0.6466-9.7626-3.2985-12.922-7.3722-3.1592-4.0738-4.5708-9.2356-3.9242-14.35 0.64662-5.1145 3.2985-9.7627 7.3722-12.922l0.20534-0.14934c4.101-3.0232 9.2252-4.3152 14.269-3.5981 5.0442 0.71716 9.6052 3.3862 12.701 7.4326 3.0959 4.0464 4.4794 9.1467 3.8525 14.203s-3.214 9.6642-7.2045 12.832z" fill="url(#d)"/>
<path d="m15.988 15.768c5.5006-5.2277 12.79-8.1571 20.379-8.1894-0.9908-1.2405-2.132-2.353-3.3973-3.312-3.6954 0.23666-7.3246 1.093-10.736 2.5333-3.513 1.4952-6.6876 3.6848-9.3333 6.4373 1.2779 0.484 2.3624 1.3728 3.088 2.5307z" fill="#fff" opacity=".6"/>
<path d="m6.3666 23.576c-0.78213 1.9509-1.4212 3.9562-1.912 6 0.4306 0.7319 0.90618 1.4363 1.424 2.1093 0.39533 0.5157 0.81816 1.0098 1.2667 1.48 0.55272-2.7218 1.3819-5.38 2.4747-7.9333-1.2257-0.2141-2.359-0.791-3.2533-1.656z" fill="#fff" opacity=".6"/>
<path d="m8.604 13.206c-0.8088-2.1694-1.3384-4.433-1.576-6.736-0.96032 1.0168-1.8079 2.1344-2.528 3.3333 0.27027 1.8354 0.70855 3.6421 1.3093 5.3973 0.72571-0.9141 1.6942-1.6054 2.7947-1.9946z" fill="#F2F2F2" opacity=".55"/>
<path d="m10.7 25.333c3.4506 0 6.248-2.7973 6.248-6.248s-2.7974-6.248-6.248-6.248c-3.4507 0-6.248 2.7973-6.248 6.248s2.7973 6.248 6.248 6.248z" fill="url(#a)"/>
<path d="m19.809 30.494c-6e-4 -0.5409 0.1075-1.0765 0.3177-1.5748 0.2103-0.4984 0.5185-0.9495 0.9063-1.3265-2.1014-1.1571-4.0424-2.5844-5.7733-4.2454-0.9093 0.9707-2.1054 1.6248-3.4133 1.8667 1.0252 1.0663 2.1355 2.0473 3.32 2.9333 1.4639 1.1005 3.0312 2.0561 4.68 2.8534-0.024-0.1679-0.0364-0.3372-0.0374-0.5067z" fill="#F2F2F2" opacity=".55"/>
<path d="m34.212 30.979c-2.1209-2e-4 -4.2345-0.2463-6.2987-0.7333 0 0.0826 0.0133 0.1653 0.0133 0.248 0.0032 1.0616-0.4115 2.0818-1.1546 2.84 2.567 0.5072 5.1869 0.6944 7.8 0.5573 0.9833-0.9283 1.8655-1.958 2.632-3.072-0.9938 0.1066-1.9926 0.16-2.992 0.16z" fill="#F2F2F2" opacity=".55"/>
<path d="m23.868 34.552c2.2415 0 4.0587-1.8171 4.0587-4.0586 0-2.2416-1.8172-4.0587-4.0587-4.0587s-4.0587 1.8171-4.0587 4.0587c0 2.2415 1.8172 4.0586 4.0587 4.0586z" fill="url(#c)"/>
<path d="m28.86 19.648c0.2117-0.8846 0.7026-1.6775 1.4-2.2614-3.7721-2.7392-7.1988-5.9251-10.205-9.488-1.7398-2.0632-3.26-4.3019-4.536-6.68-0.8495 0.26142-1.68 0.58129-2.4853 0.95733 1.3578 2.5975 2.9931 5.0402 4.8773 7.2853 3.2129 3.8368 6.891 7.2587 10.949 10.187z" fill="#F2F2F2" opacity=".7"/>
<path d="m33.119 24.739c2.3815 0 4.312-1.9305 4.312-4.312 0-2.3814-1.9305-4.312-4.312-4.312-2.3814 0-4.312 1.9306-4.312 4.312 0 2.3815 1.9306 4.312 4.312 4.312z" fill="#F2F2F2"/>
<path d="m40.361 23.333c-0.2667-0.1333-0.48-0.2506-0.7333-0.3866l-0.0694-0.0374c-0.2293-0.12-0.4533-0.2426-0.6773-0.3653l-0.1254-0.0693-0.6106-0.3413-0.1494-0.0854c-0.2426-0.136-0.4826-0.2666-0.72-0.4106-0.2461 0.8427-0.7565 1.584-1.456 2.1146 0.28 0.1653 0.5654 0.328 0.856 0.4907l0.192 0.1093 0.8 0.44 0.0774 0.0427c0.6426 0.3493 1.2987 0.6986 1.9707 1.0426 0.2746-0.8328 0.4911-1.6838 0.648-2.5466l-0.0027 0.0026z" fill="#F2F2F2" opacity=".55"/>
<path d="m10.7 25.333c3.4506 0 6.248-2.7973 6.248-6.248s-2.7974-6.248-6.248-6.248c-3.4507 0-6.248 2.7973-6.248 6.248s2.7973 6.248 6.248 6.248z" fill="url(#a)"/>
<path d="m23.868 34.552c2.2415 0 4.0587-1.8171 4.0587-4.0586 0-2.2416-1.8172-4.0587-4.0587-4.0587s-4.0587 1.8171-4.0587 4.0587c0 2.2415 1.8172 4.0586 4.0587 4.0586z" fill="#F2F2F2"/>
<path d="m47.167 28.189-0.8454-2.5546h-3.432l-1.2933-1.5094 0.4107-3.416-2.3867-1.2-2.432 2.432-1.984-0.1386-2.1333-2.72-2.5547 0.8453-0.016 0.4027v3.0293l-1.5093 1.2933-3.36-0.4186-1.1974 2.384 0.2987 0.2986 2.1333 2.1334-0.136 1.9813-2.7653 2.16 0.8453 2.552 0.4027 0.016h3.0293l1.2934 1.5093-0.4107 3.416 2.3867 1.1974 0.2986-0.2987 2.1334-2.1333 1.984 0.1386 2.1333 2.72 2.5547-0.8453 0.016-0.4027v-3.0266l1.5093-1.296 3.416 0.4106 1.2-2.384-0.2987-0.3013-2.1333-2.1333 0.1387-1.984 2.704-2.1574zm-9.9707 7.4107c-0.9721 0.3221-2.0179 0.3486-3.0051 0.0761-0.9871-0.2725-1.8713-0.8316-2.5406-1.6067-0.6692-0.7752-1.0935-1.7314-1.2192-2.7477-0.1256-1.0164 0.0531-2.0471 0.5134-2.9619 0.4604-0.9147 1.1818-1.6724 2.0729-2.177 0.8911-0.5047 1.9118-0.7337 2.9331-0.658s1.9972 0.4526 2.8042 1.0831c0.8069 0.6305 1.4088 1.4861 1.7293 2.4588 0.4299 1.3024 0.3251 2.7222-0.2915 3.9473-0.6165 1.2251-1.6944 2.1553-2.9965 2.586z" fill="url(#b)"/>
<path d="m20.801 39.341v-2.1173l-0.3013-0.1093-2.2667-0.744-0.5893-1.4374 1.152-2.4506-1.496-1.4987-0.2987 0.1493-2.1173 1.0667-1.448-0.5947-0.9173-2.5386h-2.1174l-0.112 0.296-0.74131 2.2666-1.4507 0.5947-2.4133-1.152-1.4853 1.4853 0.14667 0.2987 1.0667 2.1173-0.592 1.448-2.5893 0.912v2.1334l0.296 0.1119 2.2667 0.7441 0.59467 1.4479-1.152 2.4507 1.4853 1.4853 0.296-0.1493 2.1173-1.0667 1.448 0.592 0.93065 2.5654h2.1174l0.1093-0.2987 0.744-2.2667 1.448-0.592 2.4533 1.1494 1.4854-1.4853-0.1494-0.296-1.0666-2.1174 0.5946-1.448 2.552-0.952zm-9.2853 3.0747c-0.8065 5e-4 -1.5951-0.2382-2.266-0.6859-0.67086-0.4477-1.1939-1.0843-1.5029-1.8293s-0.39014-1.5649-0.23311-2.356c0.15702-0.7911 0.54514-1.5178 1.1153-2.0883 0.57011-0.5705 1.2966-0.9591 2.0876-1.1166 0.791-0.1576 1.6109-0.077 2.3561 0.2315 0.7452 0.3086 1.3822 0.8312 1.8303 1.5017 0.4482 0.6706 0.6874 1.459 0.6874 2.2655 3e-4 0.5354-0.1048 1.0655-0.3094 1.5602-0.2047 0.4946-0.5047 0.9441-0.8831 1.3228-0.3784 0.3786-0.8278 0.679-1.3223 0.884-0.4945 0.2049-1.0246 0.3104-1.5599 0.3104z" fill="#50E6FF"/>
<path d="m35.569 35.861c2.8586 0 5.176-2.3174 5.176-5.176s-2.3174-5.176-5.176-5.176-5.176 2.3174-5.176 5.176 2.3174 5.176 5.176 5.176z" fill="#fff"/>
<path d="m11.516 42.414c2.2503 0 4.0746-1.8243 4.0746-4.0746 0-2.2504-1.8243-4.0747-4.0746-4.0747-2.2504 0-4.0747 1.8243-4.0747 4.0747 0 2.2503 1.8243 4.0746 4.0747 4.0746z" fill="#fff"/>
<defs>
<radialGradient id="d" cx="0" cy="0" r="1" gradientTransform="translate(21.263 19.807) scale(19.439)" gradientUnits="userSpaceOnUse">
<stop stop-color="#5EA0EF" offset=".183"/>
<stop stop-color="#0078D4" offset="1"/>
</radialGradient>
<linearGradient id="a" x1="10.751" x2="10.679" y1="25.496" y2="16.44" gradientUnits="userSpaceOnUse">
<stop stop-color="#ccc" offset="0"/>
<stop stop-color="#D7D7D7" offset=".123"/>
<stop stop-color="#FCFCFC" offset="1"/>
</linearGradient>
<linearGradient id="c" x1="23.868" x2="23.868" y1="34.555" y2="26.435" gradientUnits="userSpaceOnUse">
<stop stop-color="#ccc" offset="0"/>
<stop stop-color="#D7D7D7" offset=".123"/>
<stop stop-color="#FCFCFC" offset="1"/>
</linearGradient>
<linearGradient id="b" x1="39.138" x2="31.731" y1="41.475" y2="19.089" gradientUnits="userSpaceOnUse">
<stop stop-color="#32BEDD" offset="0"/>
<stop stop-color="#32CEEF" offset=".576"/>
<stop stop-color="#32D4F5" offset="1"/>
</linearGradient>
</defs>
</svg>
